<?xml version="1.0" encoding="UTF-8" standalone="no"?>
<svg
   version="1.2"
   viewBox="0 0 1396 1070"
   width="1396"
   height="1070"
   id="svg2"
   sodipodi:docname="app.svg"
   xml:space="preserve"
   inkscape:version="1.4.4 (dcaf3e7d9e, 2026-05-05)"
   xmlns:inkscape="http://www.inkscape.org/namespaces/inkscape"
   xmlns:sodipodi="http://sodipodi.sourceforge.net/DTD/sodipodi-0.dtd"
   xmlns="http://www.w3.org/2000/svg"
   xmlns:svg="http://www.w3.org/2000/svg"
   xmlns:rdf="http://www.w3.org/1999/02/22-rdf-syntax-ns#"
   xmlns:cc="http://creativecommons.org/ns#"
   xmlns:dc="http://purl.org/dc/elements/1.1/"><sodipodi:namedview
     id="namedview2"
     pagecolor="#ffffff"
     bordercolor="#000000"
     borderopacity="0.25"
     inkscape:showpageshadow="2"
     inkscape:pageopacity="0.0"
     inkscape:pagecheckerboard="0"
     inkscape:deskcolor="#d1d1d1"
     inkscape:zoom="1.0981308"
     inkscape:cx="697.54894"
     inkscape:cy="535"
     inkscape:window-width="3440"
     inkscape:window-height="1377"
     inkscape:window-x="0"
     inkscape:window-y="1440"
     inkscape:window-maximized="1"
     inkscape:current-layer="layer1" /><title
     id="title1">Discord_logo-svg</title><defs
     id="defs2"><clipPath
       clipPathUnits="userSpaceOnUse"
       id="cp1"><path
         d="m0 0h5586.5v1069.8h-5586.5z"
         id="path1" /></clipPath><clipPath
       clipPathUnits="userSpaceOnUse"
       id="cp2"><path
         d="m0 0h5586.5v1069.8h-5586.5z"
         id="path2" /></clipPath><clipPath
       clipPathUnits="userSpaceOnUse"
       id="clipPath8812"><circle
         id="circle8814"
         cx="95.669289"
         cy="95.669296"
         r="79.724197"
         style="fill:#00080d;fill-opacity:1;stroke-width:1" /></clipPath><inkscape:path-effect
       effect="fill_between_many"
       method="originald"
       linkedpaths="#path1052,0,1|"
       id="path-effect29" /><inkscape:path-effect
       effect="fill_between_many"
       method="originald"
       linkedpaths="#path1052,0,1|"
       id="path-effect30" /><inkscape:path-effect
       effect="fill_between_many"
       method="originald"
       linkedpaths="#g866,0,1|"
       id="path-effect31" /></defs><style
     id="style2">
		.s0 { fill: #5865f2 } 
	</style><g
     id="layer1"><g
       id="g866"><g
         id="Clip-Path: g835"
         clip-path="url(#cp1)"><g
           id="g835"><g
             id="Clip-Path: g833"
             clip-path="url(#cp2)"><g
               id="g833"><path
                 id="path815"
                 fill-rule="evenodd"
                 class="s0"
                 d="m1389.7 890.5c-120.8 89.5-238.1 143.8-353.3 179.3-28.6-38.7-53.8-80-75.7-123.3 41.6-15.7 81.6-35 119.4-57.6-9.9-7.3-19.7-14.9-29.2-22.8-226.9 106.3-476.5 106.3-706.1 0-9.4 7.9-19.2 15.5-29.2 22.8 37.7 22.5 77.5 41.8 119.1 57.4-21.8 43.5-47.2 84.6-75.6 123.4-115.2-35.5-232.3-89.8-353.2-179.2-24.7-262.1 24.7-528 207-800.7 90.3-41.9 187-72.5 288.1-89.8 12.5 22.2 27.3 52.1 37.3 75.8q158.1-24 319.1 0c10-23.7 24.5-53.6 36.9-75.8 101 17.3 197.6 47.7 288 89.6 157.9 233.6 236.4 497 207.4 800.9zm-798.2-302.6c0-78.2-56.1-141.4-125.5-141.4-69.4 0-125.5 63.2-125.5 141.4 0 78.2 56.1 141.4 125.5 141.4 69.4 0 125.5-63.2 125.5-141.4zm463.7 0c0-78.2-56.1-141.4-125.5-141.4-69.4 0-125.5 63.2-125.5 141.4 0 78.2 56.1 141.4 125.5 141.4 69.4 0 125.5-63.2 125.5-141.4z"
                 inkscape:label="path815" /></g></g></g></g></g><path
       inkscape:original-d="M 0,0"
       inkscape:path-effect="#path-effect31"
       d="M 0,0"
       id="path31"
       style="stroke:#ffffff;stroke-opacity:1;fill:#c4c4c4;fill-opacity:1" /></g><g
     id="g2"
     transform="matrix(8.8489042,0,0,8.8489042,114.46072,115.37211)"><path
       id="path29"
       style="fill:#000000;fill-opacity:1;stroke-width:1.00001;stroke-dasharray:none"
       d="m 65.292969,8.4921875 c -10.195025,0.3341599 -19.8511,7.1027375 -23.633131,16.5793265 -0.205581,0.626649 -0.4004,1.155323 -0.743661,0.292305 C 37.092277,19.665198 29.777645,16.454 23.006803,17.82915 16.128883,19.088971 10.227733,24.719207 8.8633712,31.611796 7.5932171,37.455075 9.50706,43.890305 13.865187,48.007432 c 4.347094,4.245861 10.953799,6.13821 16.844804,4.469596 4.339966,-1.167425 8.231087,-4.008038 10.582978,-7.848122 3.44571,9.449457 12.600651,16.564094 22.649653,17.388854 8.622251,0.830235 17.547928,-2.836986 23.027121,-9.560726 1.905247,-2.274293 3.431272,-4.867555 4.485335,-7.640628 3.788171,6.049009 11.473202,9.453639 18.484732,7.893675 6.79931,-1.377539 12.56997,-7.020504 13.87074,-13.870237 1.20352,-5.810308 -0.71384,-12.18039 -5.04547,-16.263182 -4.4373,-4.318065 -11.22431,-6.185521 -17.19175,-4.355071 -4.128337,1.198165 -7.814167,3.918483 -10.10458,7.563565 C 87.993317,16.498986 79.001772,9.4879801 69.091346,8.6176818 67.829143,8.4918282 66.561001,8.4562382 65.292969,8.4921875 Z" /><path
       inkscape:original-d="M 0,0"
       inkscape:path-effect="#path-effect30"
       d="m 66.407896,9.375 c -11.805271,0 -21.811217,8.003196 -24.912392,18.846621 -2.695245,-5.751517 -8.535934,-9.780938 -15.263394,-9.780938 -9.25185,0 -16.85711,7.605263 -16.85711,16.857108 0,9.251833 7.60526,16.860567 16.85711,16.860567 6.72746,0 12.568149,-4.031885 15.263395,-9.784412 3.101175,10.84425 13.10712,18.850106 24.912391,18.850106 11.717964,0 21.67289,-7.885111 24.853382,-18.607048 2.745036,5.621934 8.513436,9.541354 15.145342,9.541354 9.25185,0 16.86057,-7.608734 16.86057,-16.860567 0,-9.251845 -7.60872,-16.857108 -16.86057,-16.857108 -6.631906,0 -12.400306,3.916965 -15.145342,9.537891 C 88.080786,17.257475 78.12586,9.375 66.407896,9.375 Z"
       id="path30"
       style="fill:#ffffff;fill-opacity:1" /><path
       inkscape:connector-curvature="0"
       id="path1052"
       d="m 66.407896,9.375 c -11.805271,0 -21.811217,8.003196 -24.912392,18.846621 -2.695245,-5.751517 -8.535934,-9.780938 -15.263394,-9.780938 -9.25185,0 -16.85711,7.605263 -16.85711,16.857108 0,9.251833 7.60526,16.860567 16.85711,16.860567 6.72746,0 12.568149,-4.031885 15.263395,-9.784412 3.101175,10.84425 13.10712,18.850106 24.912391,18.850106 11.717964,0 21.67289,-7.885111 24.853382,-18.607048 2.745036,5.621934 8.513436,9.541354 15.145342,9.541354 9.25185,0 16.86057,-7.608734 16.86057,-16.860567 0,-9.251845 -7.60872,-16.857108 -16.86057,-16.857108 -6.631906,0 -12.400306,3.916965 -15.145342,9.537891 C 88.080786,17.257475 78.12586,9.375 66.407896,9.375 Z m 0,9.895518 c 8.911648,0 16.030748,7.115653 16.030748,16.027273 0,8.911605 -7.1191,16.030737 -16.030748,16.030737 -8.911593,0 -16.027247,-7.119132 -16.027247,-16.030737 0,-8.91162 7.115653,-16.027271 16.027247,-16.027273 z M 26.23211,28.336202 c 3.90438,0 6.96505,3.057188 6.96505,6.961589 0,3.904386 -3.06067,6.965049 -6.96505,6.965049 -3.90439,0 -6.96161,-3.060663 -6.96161,-6.965049 0,-3.904401 3.05722,-6.961589 6.96161,-6.961589 z m 80.17451,0 c 3.90442,0 6.96506,3.057188 6.96506,6.961589 0,3.904386 -3.06066,6.965049 -6.96506,6.965049 -3.90436,0 -6.961576,-3.060663 -6.961576,-6.965049 0,-3.904401 3.057226,-6.961589 6.961576,-6.961589 z"
       style="color:#000000;font-style:normal;font-variant:normal;font-weight:normal;font-stretch:normal;font-size:medium;line-height:normal;font-family:sans-serif;text-indent:0;text-align:start;text-decoration:none;text-decoration-line:none;text-decoration-style:solid;text-decoration-color:#000000;letter-spacing:normal;word-spacing:normal;text-transform:none;writing-mode:lr-tb;direction:ltr;baseline-shift:baseline;text-anchor:start;white-space:normal;clip-rule:nonzero;display:inline;overflow:visible;visibility:visible;opacity:1;isolation:auto;mix-blend-mode:normal;color-interpolation:sRGB;color-interpolation-filters:linearRGB;solid-color:#000000;solid-opacity:1;fill:#0082c9;fill-opacity:1;fill-rule:nonzero;stroke:none;stroke-width:5.5658869;stroke-linecap:butt;stroke-linejoin:miter;stroke-miterlimit:10;stroke-dasharray:none;stroke-dashoffset:0;stroke-opacity:1;color-rendering:auto;image-rendering:auto;shape-rendering:auto;text-rendering:auto;enable-background:accumulate"
       inkscape:export-filename="Nextcloud Hub logo variants.png"
       inkscape:export-xdpi="300"
       inkscape:export-ydpi="300" /><path
       id="path1174"
       style="fill:#000000;fill-opacity:1;stroke-width:0.470385"
       d="m 30.166016,68.115234 c -1.147167,-0.05488 -1.745589,1.255399 -1.527243,2.244912 0.03444,2.485279 0.01723,4.970835 0.01748,7.45626 -2.052988,-3.135348 -3.989057,-6.360606 -6.179688,-9.396484 -0.901406,-0.667596 -2.633609,-0.237577 -2.587538,1.055065 -0.04359,4.500772 -0.06718,9.00358 0.01383,13.503964 -0.195263,0.866682 0.525153,1.681942 1.392375,1.667825 0.934733,0.104006 1.904693,-0.687555 1.743744,-1.672948 -0.0013,-2.676172 -0.0025,-5.352344 -0.0038,-8.028516 2.050247,3.133601 3.992734,6.350211 6.166016,9.392579 0.94969,0.758539 2.799128,0.109488 2.630859,-1.236329 -0.01042,-4.670439 0.05128,-9.347884 -0.07031,-14.013671 -0.186626,-0.676367 -0.93574,-1.026913 -1.595703,-0.972657 z m 80.445314,0.210938 c -0.93489,-0.02488 -1.24024,1.121688 -1.03125,1.863281 -0.03,0.909231 -0.0135,1.818991 -0.0176,2.728516 -2.6689,-1.643016 -6.67299,-0.146083 -7.51642,2.902721 -0.87251,2.477216 -0.50064,5.503704 1.28836,7.488183 1.67091,1.692914 4.59348,2.017689 6.53665,0.648158 0.73363,1.166804 2.99475,0.683329 2.91602,-0.792969 -0.0368,-4.618647 0.0836,-9.252231 -0.0957,-13.861328 -0.32702,-0.803022 -1.29668,-1.032409 -2.08008,-0.976562 z M 74.068359,68.375 c -0.903803,-0.03645 -1.229279,1.079011 -0.988281,1.794922 0.01695,4.110923 -0.133245,8.234812 0.109173,12.33701 0.379213,1.685131 2.595396,2.917709 4.108312,1.877799 0.95643,-0.853344 0.380623,-2.742162 -0.926469,-2.814419 -0.325603,-0.696765 -0.01079,-1.513106 -0.135141,-2.257812 -0.03314,-3.337648 0.09314,-6.698847 -0.103141,-10.021484 -0.378064,-0.744159 -1.291457,-0.9742 -2.064453,-0.916016 z m -16.873047,1.222656 c -1.135885,-0.04526 -1.616475,1.318599 -1.398437,2.25586 0.07308,3.23234 -0.178091,6.488967 0.191319,9.703735 0.518072,2.1551 3.095571,3.731476 5.207118,2.884155 1.220071,-0.761187 0.537863,-3.058964 -0.955462,-2.848498 -0.993791,-0.01272 -1.420914,-1.168299 -1.248261,-2.011607 -0.04007,-1.362674 -0.01615,-2.726083 -0.01893,-4.089113 0.935724,0.09574 2.270838,0.0955 2.601563,-1.00586 0.330021,-1.075769 -0.743024,-2.222284 -1.837891,-1.953125 -0.416776,0.04462 -0.985192,0.197147 -0.765343,-0.430108 0.09766,-0.885011 0.04265,-2.178042 -1.004188,-2.454657 -0.253571,-0.05692 -0.513161,-0.05567 -0.771485,-0.05078 z m -18.740234,2.638672 c -3.142673,-0.137607 -5.91336,2.685337 -5.98893,5.775569 -0.327887,3.110752 1.971863,6.368354 5.150279,6.743467 1.967893,0.326882 4.244963,-0.179665 5.568564,-1.739515 0.653436,-1.215158 -1.002405,-2.889032 -2.163507,-1.963115 -1.569497,1.424939 -4.596329,0.782506 -5.141898,-1.364055 -0.132258,-0.470866 0.888567,-0.04313 1.225491,-0.191711 1.904953,-0.01691 3.825762,0.08081 5.719142,-0.112202 1.132324,-0.489527 0.950072,-1.932366 0.738557,-2.914898 -0.34454,-2.405558 -2.647491,-4.413452 -5.107698,-4.23354 z m 28.458984,0.02734 c -3.157044,0.301526 -5.734336,3.312621 -5.568381,6.478005 -0.03164,3.131517 2.642511,6.079738 5.816652,6.139103 1.91904,0.131339 4.086078,-0.515098 5.204582,-2.159295 0.560888,-1.279166 -1.319835,-2.783547 -2.35129,-1.698047 -1.626251,1.527901 -4.856707,0.750422 -5.295592,-1.533983 -0.599307,-1.957956 0.999385,-4.425075 3.164466,-4.169419 1.012586,0.03044 1.794337,0.798139 2.720358,1.043371 1.437929,0.09271 2.260289,-2.176068 0.915062,-2.894521 -1.291933,-1.001908 -3.000206,-1.343341 -4.605857,-1.205214 z m 16.097657,-0.0078 c -3.517748,0.189073 -6.396291,3.834401 -5.688638,7.303718 0.498952,3.307868 3.93708,5.85873 7.252821,5.229405 3.155345,-0.440799 5.732887,-3.530964 5.377409,-6.740569 -0.185512,-3.027075 -2.825331,-5.711456 -5.88713,-5.790981 -0.350059,-0.03254 -0.703729,-0.01746 -1.054462,-0.0016 z m -29.685547,0.06445 c -1.478617,0.321641 -2.029949,1.921134 -3.061416,2.844938 -0.256571,0.295588 -0.445976,0.654302 -0.756944,0.899203 -1.073598,-1.179854 -1.951117,-2.601633 -3.225127,-3.55876 -1.35161,-0.543255 -2.882947,1.391164 -1.808076,2.502119 0.991537,1.179037 1.983073,2.358073 2.97461,3.53711 -1.094713,1.361756 -2.338475,2.625174 -3.283203,4.09375 -0.454377,1.413012 1.673361,2.736952 2.670166,1.570233 0.896867,-1.065516 1.789893,-2.134326 2.685302,-3.201093 1.045254,1.180253 1.945573,2.517214 3.146485,3.541016 1.34657,0.635949 2.981962,-1.284328 1.917969,-2.441406 -0.999349,-1.188802 -1.998698,-2.377604 -2.998047,-3.566406 1.102221,-1.400282 2.423557,-2.653884 3.318359,-4.201172 0.191482,-0.925521 -0.689683,-1.728746 -1.451172,-2.025391 -0.04224,0.0055 -0.08788,-0.01237 -0.128906,0.0059 z m 46.105469,0.101563 c -0.997891,0.03539 -1.701829,1.054226 -1.514063,2.009338 -0.0058,1.971512 0.140737,3.963521 -0.08903,5.92234 -0.492282,1.77998 -3.439823,1.881106 -4.007898,0.105439 -0.403154,-1.226702 -0.102591,-2.646422 -0.172448,-3.959708 -0.01851,-1.122109 0.08761,-2.312474 -0.225156,-3.38327 -0.68196,-1.033954 -2.625751,-0.892325 -2.903514,0.422925 -0.198784,1.071775 0.05889,2.183724 -0.04994,3.272233 -0.0016,1.777706 -0.183805,3.642269 0.450327,5.337266 1.157519,2.387332 4.222302,3.194869 6.637527,2.494966 1.88251,-0.499969 3.502601,-2.183712 3.496521,-4.201718 0.18567,-2.116641 -0.0238,-4.246225 0.0752,-6.365618 0.0176,-0.773127 -0.47512,-1.600811 -1.312744,-1.632709 -0.127491,-0.02302 -0.25559,-0.03071 -0.384765,-0.02148 z M 38.4375,75.21875 c 0.869455,-0.05407 1.611805,0.646849 1.869141,1.433594 -1.408885,0.0046 -2.81774,5.47e-4 -4.226563,-0.01367 0.446649,-0.852898 1.377924,-1.469256 2.357422,-1.419922 z m 45.300781,0.08594 c 2.192319,0.02137 3.6351,2.676617 2.707384,4.597218 -0.713406,1.868112 -3.45975,2.635353 -4.885854,1.109064 -1.5107,-1.369041 -1.453522,-4.206956 0.422434,-5.235043 0.52652,-0.325729 1.175182,-0.481744 1.756036,-0.471239 z m 23.841799,0.04102 c 1.54027,0.337225 2.09346,2.118095 1.99414,3.519531 0.022,1.40516 -0.93678,3.092272 -2.52344,2.97461 -1.38543,-0.081 -2.24656,-1.491202 -2.2793,-2.773438 -0.27508,-1.731959 0.70668,-4.067069 2.8086,-3.720703 z" /><path
       style="fill:#0082c9;fill-opacity:1;stroke-width:0.470385"
       d="m 21.235693,69.043756 c -0.32926,0 -0.47147,0.187936 -0.47147,0.517242 V 83.20368 c 0,0.32927 0.14221,0.51495 0.47147,0.51495 h 0.37763 c 0.32927,0 0.51494,-0.18568 0.51494,-0.51495 V 71.874833 l 7.4473,11.557727 c 0.0324,0.0505 0.0677,0.0842 0.10299,0.12123 0.0106,0.0125 0.0179,0.0256 0.0298,0.0366 0.0317,0.0289 0.0665,0.044 0.10065,0.0618 0.019,0.01 0.0338,0.0247 0.055,0.032 0.0148,0.005 0.0304,0.002 0.0458,0.006 0.0525,0.0135 0.10618,0.0275 0.16936,0.0275 h 0.37534 c 0.32926,0 0.47146,-0.18567 0.47146,-0.51495 V 69.560768 c 0,-0.329305 -0.1422,-0.517241 -0.47146,-0.517241 h -0.37534 c -0.32929,0 -0.51724,0.187936 -0.51724,0.517241 V 80.89011 l -7.4473,-11.557716 c -0.0254,-0.03939 -0.0561,-0.06339 -0.0847,-0.0939 -0.086,-0.121611 -0.2222,-0.194545 -0.41654,-0.194545 z m 89.420157,0.187676 c -0.32926,0 -0.18767,0.187956 -0.18767,0.517241 v 4.657417 c 0,0.47037 0.0456,0.79872 0.0456,0.79872 h -0.0456 c 0,0 -0.89419,-2.06893 -3.38722,-2.06893 -2.72821,0 -4.65771,2.16372 -4.56357,5.36231 0,3.19862 1.74024,5.41041 4.51551,5.41041 2.68118,0 3.5749,-2.16508 3.5749,-2.16508 h 0.048 c 0,0 -0.0939,0.28283 -0.0939,0.65913 v 0.79874 c 0,0.32926 0.18796,0.47148 0.51726,0.47148 h 0.32955 c 0.32927,0 0.46917,-0.18798 0.46917,-0.51724 V 69.748673 c 0,-0.329285 -0.51754,-0.517241 -0.84681,-0.517241 z m -36.549859,0.0481 c -0.329276,0 -0.13961,0.187976 -0.13961,0.517241 V 81.32017 c 0,2.25783 1.503766,2.54039 2.350463,2.54039 0.376301,0 0.517217,-0.18796 0.517217,-0.51721 v -0.32958 c 0,-0.32926 -0.188212,-0.46918 -0.423394,-0.46918 -0.470405,-0.047 -1.080249,-0.18887 -1.080249,-1.50594 V 69.79677 c 0,-0.329266 -0.517531,-0.517241 -0.846807,-0.517241 z M 57.220266,70.50169 c -0.32927,0 -0.517238,0.187975 -0.517238,0.51724 v 2.44659 1.17638 5.31423 c 0,2.44599 1.365105,3.81064 3.622946,3.81064 0.42334,0 0.563011,-0.13993 0.563011,-0.46918 v -0.2838 c 0,-0.37629 -0.139671,-0.47024 -0.563011,-0.51724 -0.799652,-0.047 -2.258905,-0.32912 -2.258905,-2.72809 v -5.17464 h 2.117009 c 0.329268,0 0.517238,-0.1399 0.517238,-0.46918 v -0.1419 c 0,-0.32926 -0.18797,-0.51722 -0.517238,-0.51722 h -2.117009 v -2.44659 c 0,-0.329265 -0.139909,-0.51724 -0.469177,-0.51724 z m -18.734963,2.63427 c -2.82229,0 -5.08192,2.02359 -5.12888,5.41037 0,3.19859 2.35289,5.40809 5.41039,5.40809 1.646328,0 2.86852,-0.70495 3.432986,-1.12831 0.23526,-0.18814 0.283014,-0.42392 0.141896,-0.65912 l -0.141896,-0.23346 c -0.141115,-0.28223 -0.374612,-0.33005 -0.656846,-0.14188 -0.470383,0.37629 -1.413295,0.94064 -2.730371,0.94064 -2.116709,0 -3.951319,-1.50604 -3.998279,-4.14019 h 7.479331 c 0.282247,0 0.517238,-0.23501 0.517238,-0.51725 0,-2.9634 -1.550291,-4.93889 -4.325569,-4.93889 z m 29.223883,0 c -3.057482,0 -5.409203,2.25755 -5.456161,5.45614 0,3.1986 2.352896,5.41039 5.410387,5.41039 1.881541,0 3.151307,-0.89493 3.668718,-1.31828 0.235262,-0.2352 0.280729,-0.42265 0.139619,-0.7049 L 71.33213,81.79165 c -0.188136,-0.28225 -0.376902,-0.33005 -0.659131,-0.14191 -0.470383,0.42334 -1.457552,1.08255 -2.915751,1.08255 -2.257826,0 -4.046348,-1.69419 -4.046348,-4.14019 0,-2.49302 1.788522,-4.18596 4.046348,-4.18596 1.223008,0 2.115816,0.61137 2.58618,0.94065 0.282241,0.18807 0.516748,0.18838 0.704913,-0.0938 l 0.1419,-0.23572 c 0.235271,-0.28224 0.187125,-0.51677 -0.0481,-0.7049 -0.517422,-0.42337 -1.645515,-1.17638 -3.432986,-1.17638 z m 15.899301,0 c -3.010451,0 -5.456156,2.30482 -5.456156,5.36231 0,3.10451 2.445705,5.45615 5.456156,5.45615 3.010478,0 5.456168,-2.35164 5.456168,-5.45615 0,-3.05749 -2.44569,-5.36231 -5.456168,-5.36231 z m -30.429991,0.15793 c -0.11518,0.0184 -0.226037,0.0959 -0.331857,0.22197 l -1.904164,2.26805 -1.423546,1.69818 -2.158205,-2.57015 -1.169505,-1.39608 c -0.105876,-0.12611 -0.225795,-0.19525 -0.350163,-0.20597 -0.124354,-0.01 -0.253796,0.0361 -0.379919,0.14189 l -0.288371,0.24258 c -0.252223,0.21167 -0.23901,0.44583 -0.02745,0.69807 l 1.904166,2.26803 1.579172,1.88357 -2.311543,2.75326 c -0.0024,0.002 -0.0035,0.005 -0.0046,0.006 l -1.167215,1.38923 c -0.211653,0.25223 -0.188132,0.51842 0.06408,0.73009 l 0.288368,0.2403 c 0.252239,0.21164 0.481813,0.15841 0.693465,-0.0939 l 1.901876,-2.26806 1.425834,-1.69818 2.158204,2.57244 c 10e-4,0.002 0.0035,0.004 0.0046,0.005 l 1.164928,1.3915 c 0.211652,0.25223 0.477834,0.27337 0.730081,0.0617 l 0.288371,-0.2403 c 0.252237,-0.21165 0.239134,-0.44581 0.02746,-0.69805 l -1.904161,-2.27034 -1.579177,-1.88129 2.311546,-2.75554 c 0.0024,-0.002 0.0035,-0.004 0.0046,-0.006 l 1.167214,-1.38921 c 0.211651,-0.25224 0.188132,-0.51844 -0.06408,-0.73009 l -0.288371,-0.2403 c -0.126112,-0.10587 -0.246408,-0.14655 -0.361607,-0.12815 z m 38.662308,0.0779 c -0.32928,0 -0.47148,0.18796 -0.47148,0.51723 v 6.06722 c 0,2.6812 1.9757,3.99829 4.42169,3.99829 2.446,0 4.421696,-1.31709 4.421696,-3.99829 v -6.06723 c 0.047,-0.32926 -0.13991,-0.51723 -0.469176,-0.51723 h -0.37763 c -0.32927,0 -0.51724,0.18797 -0.51724,0.51723 v 5.69189 c 0,1.59931 -1.035,3.05766 -3.05765,3.05766 -1.9756,0 -3.05763,-1.45835 -3.05763,-3.05766 v -5.69189 c 0,-0.32926 -0.18797,-0.51723 -0.51726,-0.51723 z m -53.403561,0.94063 c 1.505226,0 2.82161,1.08155 2.915753,3.24531 h -6.490633 c 0.32927,-2.11674 1.83447,-3.24531 3.57488,-3.24531 z m 45.171244,0.0939 c 2.210809,0 3.998303,1.74023 3.998303,4.09214 0,2.44598 -1.787494,4.23401 -3.998303,4.23401 -2.210781,0 -3.999385,-1.83505 -4.046332,-4.23401 0,-2.30488 1.835551,-4.09214 4.046332,-4.09214 z m 23.566303,0 c 2.21082,0 3.29339,2.02346 3.29339,4.1402 0,2.9634 -1.60102,4.18595 -3.34144,4.18595 -1.92856,0 -3.24413,-1.6459 -3.29108,-4.18595 0,-2.63415 1.50465,-4.1402 3.33913,-4.1402 z"
       id="path3"
       inkscape:connector-curvature="0" /></g><metadata
     id="metadata31"><rdf:RDF><cc:Work
         rdf:about=""><dc:title>Discord_logo-svg</dc:title></cc:Work></rdf:RDF></metadata></svg>
