<?xml version="1.0" encoding="UTF-8" standalone="no"?>
<svg
   version="1.2"
   viewBox="0 0 1396 1070"
   width="1396"
   height="1070"
   id="svg2"
   sodipodi:docname="app.svg"
   xml:space="preserve"
   inkscape:version="1.4.4 (dcaf3e7d9e, 2026-05-05)"
   xmlns:inkscape="http://www.inkscape.org/namespaces/inkscape"
   xmlns:sodipodi="http://sodipodi.sourceforge.net/DTD/sodipodi-0.dtd"
   xmlns="http://www.w3.org/2000/svg"
   xmlns:svg="http://www.w3.org/2000/svg"
   xmlns:rdf="http://www.w3.org/1999/02/22-rdf-syntax-ns#"
   xmlns:cc="http://creativecommons.org/ns#"
   xmlns:dc="http://purl.org/dc/elements/1.1/"><sodipodi:namedview
     id="namedview2"
     pagecolor="#ffffff"
     bordercolor="#000000"
     borderopacity="0.25"
     inkscape:showpageshadow="2"
     inkscape:pageopacity="0.0"
     inkscape:pagecheckerboard="0"
     inkscape:deskcolor="#d1d1d1"
     inkscape:zoom="1.0981308"
     inkscape:cx="697.54896"
     inkscape:cy="535.00002"
     inkscape:window-width="3440"
     inkscape:window-height="1377"
     inkscape:window-x="0"
     inkscape:window-y="1440"
     inkscape:window-maximized="1"
     inkscape:current-layer="svg2" /><title
     id="title1">Discord_logo-svg</title><defs
     id="defs2"><clipPath
       clipPathUnits="userSpaceOnUse"
       id="cp1"><path
         d="m0 0h5586.5v1069.8h-5586.5z"
         id="path1" /></clipPath><clipPath
       clipPathUnits="userSpaceOnUse"
       id="cp2"><path
         d="m0 0h5586.5v1069.8h-5586.5z"
         id="path2" /></clipPath><clipPath
       clipPathUnits="userSpaceOnUse"
       id="clipPath8812"><circle
         id="circle8814"
         cx="95.669289"
         cy="95.669296"
         r="79.724197"
         style="fill:#00080d;fill-opacity:1;stroke-width:1" /></clipPath><inkscape:path-effect
       effect="fill_between_many"
       method="originald"
       linkedpaths="#path1052,0,1|"
       id="path-effect29" /><inkscape:path-effect
       effect="fill_between_many"
       method="originald"
       linkedpaths="#path1052,0,1|"
       id="path-effect30" /><inkscape:path-effect
       effect="fill_between_many"
       method="originald"
       linkedpaths="#g866,0,1|"
       id="path-effect31" /></defs><style
     id="style2">
		.s0 { fill: #5865f2 } 
	</style><g
     id="layer1"><g
       id="g866"><g
         id="Clip-Path: g835"
         clip-path="url(#cp1)"><g
           id="g835"><g
             id="Clip-Path: g833"
             clip-path="url(#cp2)"><g
               id="g833"><path
                 id="path815"
                 fill-rule="evenodd"
                 class="s0"
                 d="m1389.7 890.5c-120.8 89.5-238.1 143.8-353.3 179.3-28.6-38.7-53.8-80-75.7-123.3 41.6-15.7 81.6-35 119.4-57.6-9.9-7.3-19.7-14.9-29.2-22.8-226.9 106.3-476.5 106.3-706.1 0-9.4 7.9-19.2 15.5-29.2 22.8 37.7 22.5 77.5 41.8 119.1 57.4-21.8 43.5-47.2 84.6-75.6 123.4-115.2-35.5-232.3-89.8-353.2-179.2-24.7-262.1 24.7-528 207-800.7 90.3-41.9 187-72.5 288.1-89.8 12.5 22.2 27.3 52.1 37.3 75.8q158.1-24 319.1 0c10-23.7 24.5-53.6 36.9-75.8 101 17.3 197.6 47.7 288 89.6 157.9 233.6 236.4 497 207.4 800.9zm-798.2-302.6c0-78.2-56.1-141.4-125.5-141.4-69.4 0-125.5 63.2-125.5 141.4 0 78.2 56.1 141.4 125.5 141.4 69.4 0 125.5-63.2 125.5-141.4zm463.7 0c0-78.2-56.1-141.4-125.5-141.4-69.4 0-125.5 63.2-125.5 141.4 0 78.2 56.1 141.4 125.5 141.4 69.4 0 125.5-63.2 125.5-141.4z"
                 inkscape:label="path815" /></g></g></g></g></g><path
       inkscape:original-d="M 0,0"
       inkscape:path-effect="#path-effect31"
       d="M 0,0"
       id="path31"
       style="stroke:#ffffff;stroke-opacity:1;fill:#c4c4c4;fill-opacity:1" /></g><g
     id="g2"
     transform="matrix(12.025809,0,0,12.025809,-99.68963,163.39161)"><path
       id="path29"
       style="fill:#000000;fill-opacity:1;stroke-width:1.00001;stroke-dasharray:none"
       d="m 65.292969,8.4921875 c -10.195025,0.3341599 -19.8511,7.1027375 -23.633131,16.5793265 -0.205581,0.626649 -0.4004,1.155323 -0.743661,0.292305 C 37.092277,19.665198 29.777645,16.454 23.006803,17.82915 16.128883,19.088971 10.227733,24.719207 8.8633712,31.611796 7.5932171,37.455075 9.50706,43.890305 13.865187,48.007432 c 4.347094,4.245861 10.953799,6.13821 16.844804,4.469596 4.339966,-1.167425 8.231087,-4.008038 10.582978,-7.848122 3.44571,9.449457 12.600651,16.564094 22.649653,17.388854 8.622251,0.830235 17.547928,-2.836986 23.027121,-9.560726 1.905247,-2.274293 3.431272,-4.867555 4.485335,-7.640628 3.788171,6.049009 11.473202,9.453639 18.484732,7.893675 6.79931,-1.377539 12.56997,-7.020504 13.87074,-13.870237 1.20352,-5.810308 -0.71384,-12.18039 -5.04547,-16.263182 -4.4373,-4.318065 -11.22431,-6.185521 -17.19175,-4.355071 -4.128337,1.198165 -7.814167,3.918483 -10.10458,7.563565 C 87.993317,16.498986 79.001772,9.4879801 69.091346,8.6176818 67.829143,8.4918282 66.561001,8.4562382 65.292969,8.4921875 Z" /><path
       inkscape:original-d="M 0,0"
       inkscape:path-effect="#path-effect30"
       d="m 66.407896,9.375 c -11.805271,0 -21.811217,8.003196 -24.912392,18.846621 -2.695245,-5.751517 -8.535934,-9.780938 -15.263394,-9.780938 -9.25185,0 -16.85711,7.605263 -16.85711,16.857108 0,9.251833 7.60526,16.860567 16.85711,16.860567 6.72746,0 12.568149,-4.031885 15.263395,-9.784412 3.101175,10.84425 13.10712,18.850106 24.912391,18.850106 11.717964,0 21.67289,-7.885111 24.853382,-18.607048 2.745036,5.621934 8.513436,9.541354 15.145342,9.541354 9.25185,0 16.86057,-7.608734 16.86057,-16.860567 0,-9.251845 -7.60872,-16.857108 -16.86057,-16.857108 -6.631906,0 -12.400306,3.916965 -15.145342,9.537891 C 88.080786,17.257475 78.12586,9.375 66.407896,9.375 Z"
       id="path30"
       style="fill:#ffffff;fill-opacity:1" /><path
       inkscape:connector-curvature="0"
       id="path1052"
       d="m 66.407896,9.375 c -11.805271,0 -21.811217,8.003196 -24.912392,18.846621 -2.695245,-5.751517 -8.535934,-9.780938 -15.263394,-9.780938 -9.25185,0 -16.85711,7.605263 -16.85711,16.857108 0,9.251833 7.60526,16.860567 16.85711,16.860567 6.72746,0 12.568149,-4.031885 15.263395,-9.784412 3.101175,10.84425 13.10712,18.850106 24.912391,18.850106 11.717964,0 21.67289,-7.885111 24.853382,-18.607048 2.745036,5.621934 8.513436,9.541354 15.145342,9.541354 9.25185,0 16.86057,-7.608734 16.86057,-16.860567 0,-9.251845 -7.60872,-16.857108 -16.86057,-16.857108 -6.631906,0 -12.400306,3.916965 -15.145342,9.537891 C 88.080786,17.257475 78.12586,9.375 66.407896,9.375 Z m 0,9.895518 c 8.911648,0 16.030748,7.115653 16.030748,16.027273 0,8.911605 -7.1191,16.030737 -16.030748,16.030737 -8.911593,0 -16.027247,-7.119132 -16.027247,-16.030737 0,-8.91162 7.115653,-16.027271 16.027247,-16.027273 z M 26.23211,28.336202 c 3.90438,0 6.96505,3.057188 6.96505,6.961589 0,3.904386 -3.06067,6.965049 -6.96505,6.965049 -3.90439,0 -6.96161,-3.060663 -6.96161,-6.965049 0,-3.904401 3.05722,-6.961589 6.96161,-6.961589 z m 80.17451,0 c 3.90442,0 6.96506,3.057188 6.96506,6.961589 0,3.904386 -3.06066,6.965049 -6.96506,6.965049 -3.90436,0 -6.961576,-3.060663 -6.961576,-6.965049 0,-3.904401 3.057226,-6.961589 6.961576,-6.961589 z"
       style="color:#000000;font-style:normal;font-variant:normal;font-weight:normal;font-stretch:normal;font-size:medium;line-height:normal;font-family:sans-serif;text-indent:0;text-align:start;text-decoration:none;text-decoration-line:none;text-decoration-style:solid;text-decoration-color:#000000;letter-spacing:normal;word-spacing:normal;text-transform:none;writing-mode:lr-tb;direction:ltr;baseline-shift:baseline;text-anchor:start;white-space:normal;clip-rule:nonzero;display:inline;overflow:visible;visibility:visible;opacity:1;isolation:auto;mix-blend-mode:normal;color-interpolation:sRGB;color-interpolation-filters:linearRGB;solid-color:#000000;solid-opacity:1;fill:#0082c9;fill-opacity:1;fill-rule:nonzero;stroke:none;stroke-width:5.56589;stroke-linecap:butt;stroke-linejoin:miter;stroke-miterlimit:10;stroke-dasharray:none;stroke-dashoffset:0;stroke-opacity:1;color-rendering:auto;image-rendering:auto;shape-rendering:auto;text-rendering:auto;enable-background:accumulate"
       inkscape:export-filename="Nextcloud Hub logo variants.png"
       inkscape:export-xdpi="300"
       inkscape:export-ydpi="300" /></g><metadata
     id="metadata31"><rdf:RDF><cc:Work
         rdf:about=""><dc:title>Discord_logo-svg</dc:title></cc:Work></rdf:RDF></metadata></svg>
